<svg xmlns="http://www.w3.org/2000/svg" width="20px" height="20px" viewBox="0 0 20 20">
    <circle cx="15.3" cy="4.7" r="1.2"/>
    <path d="M20 5.9a6.9 6.9 0 0 0-.5-2.4A4.9 4.9 0 0 0 16.6.6a6.9 6.9 0 0 0-2.4-.5H5.9a6.9 6.9 0 0 0-2.4.5A4.9 4.9 0 0 0 .6 3.5a6.9 6.9 0 0 0-.5 2.4A36.9 36.9 0 0 0 0 10a39.2 39.2 0 0 0 .1 4.2 6.9 6.9 0 0 0 .5 2.4 5.2 5.2 0 0 0 2.9 2.9 6.9 6.9 0 0 0 2.4.5h8.3a6.9 6.9 0 0 0 2.4-.5 5.2 5.2 0 0 0 2.9-2.9 6.9 6.9 0 0 0 .5-2.4V5.9zm-1.8 8.2a4.3 4.3 0 0 1-.4 1.9 3.2 3.2 0 0 1-1.8 1.8 4.3 4.3 0 0 1-1.9.4H6a3.9 3.9 0 0 1-1.8-.4A3.1 3.1 0 0 1 2.3 16a6.3 6.3 0 0 1-.3-1.9 34.7 34.7 0 0 1-.1-4A36.9 36.9 0 0 1 2 6a5.7 5.7 0 0 1 .3-1.8 3 3 0 0 1 1.9-1.9A5.7 5.7 0 0 1 6 2h8.1a6.3 6.3 0 0 1 1.9.3 3.1 3.1 0 0 1 1.8 1.9 3.9 3.9 0 0 1 .4 1.8 36.9 36.9 0 0 1 .1 4.1c0 2.6-.1 2.9-.1 4z" />
    <path d="M10 4.9a5.2 5.2 0 1 0 5.2 5.1A5.1 5.1 0 0 0 10 4.9zm2.4 7.5a3.3 3.3 0 1 1 0-4.7 3.4 3.4 0 0 1 1 2.3 3.5 3.5 0 0 1-1 2.4z"/>
</svg>